<svg xmlns="http://www.w3.org/2000/svg" version="1.1" width="1982" height="1544">style="background-color:rgb(none)">
<polygon id="GRB-0001A" points="874,788 870,788 870,821 774,821 774,694 870,694 870,752 874,752" stroke="rgb(none)" stroke-width="1.3" fill="none" />
<polygon id="GRB-0001B" points="870,853 874,853 874,889 870,889 870,921 774,921 774,821 870,821" stroke="rgb(none)" stroke-width="1.3" fill="none" />
<polygon id="GRB-0001" points="874,694 989,694 989,874 934,874 934,921 931,921 931,925 895,925 895,921 874,921" stroke="rgb(none)" stroke-width="1.3" fill="none" />
<polygon id="GRB-0003" points="1089,874 993,874 993,821 989,821 989,785 993,785 993,776 1089,776" stroke="rgb(none)" stroke-width="1.3" fill="none" />
<polygon id="GRB-0002" points="1089,772 993,772 993,763 989,763 989,727 993,727 993,694 1089,694" stroke="rgb(none)" stroke-width="1.3" fill="none" />
<polygon id="GRB-0005" points="219,946 64,946 135,699 219,699 219,707 224,707 224,743 219,743" stroke="rgb(none)" stroke-width="1.3" fill="none" />
<polygon id="GRB-0004" points="319,1455 235,1455 235,1234 319,1234" stroke="rgb(none)" stroke-width="1.3" fill="none" />
<polygon id="GRB-0008" points="1802,1496 1696,1496 1696,1328 1705,1322 1703,1318 1732,1298 1734,1301 1747,1293 1802,1293" stroke="rgb(none)" stroke-width="1.3" fill="none" />
<polygon id="GRB-0007" points="1925,1496 1806,1496 1806,1335 1802,1335 1802,1293 1925,1293" stroke="rgb(none)" stroke-width="1.3" fill="none" />
<polygon id="GRB-0010" points="1909,994 1807,994 1807,989 1803,989 1803,953 1807,953 1807,797 1909,797" stroke="rgb(none)" stroke-width="1.3" fill="none" />
<polygon id="GRB-0009" points="1803,929 1774,929 1774,935 1738,935 1738,929 1696,929 1696,797 1803,797" stroke="rgb(none)" stroke-width="1.3" fill="none" />
<polygon id="GRB-0006" points="224,951 224,694 136,694 243,321 757,321 757,381 1164,381 1164,690 770,690 770,925 938,925 938,878 1089,878 1089,920 1093,920 1093,700 1174,700 1174,381 1925,381 1925,792 1696,792 1696,716 1692,716 1692,935 1803,935 1803,998 1925,998 1925,1289 1746,1289 1692,1326 1692,1496 1402,1496 1402,1455 649,1455 649,1454 571,1454 571,1455 319,1455 319,1234 56,1234 56,974 63,951" stroke="rgb(none)" stroke-width="1.3" fill="none" />
<line x1="1392" y1="1506" x2="1934" y2="1506" stroke-width="3.0" stroke="rgb(0,0,0)" />
<line x1="1392" y1="1465" x2="1392" y2="1506" stroke-width="3.0" stroke="rgb(0,0,0)" />
<line x1="225" y1="1465" x2="1392" y2="1465" stroke-width="3.0" stroke="rgb(0,0,0)" />
<line x1="225" y1="1244" x2="225" y2="1465" stroke-width="3.0" stroke="rgb(0,0,0)" />
<line x1="46" y1="1244" x2="225" y2="1244" stroke-width="3.0" stroke="rgb(0,0,0)" />
<line x1="46" y1="972" x2="46" y2="1244" stroke-width="3.0" stroke="rgb(0,0,0)" />
<line x1="236" y1="311" x2="46" y2="972" stroke-width="3.0" stroke="rgb(0,0,0)" />
<line x1="767" y1="311" x2="236" y2="311" stroke-width="3.0" stroke="rgb(0,0,0)" />
<line x1="767" y1="371" x2="767" y2="311" stroke-width="3.0" stroke="rgb(0,0,0)" />
<line x1="1814" y1="371" x2="767" y2="371" stroke-width="3.0" stroke="rgb(0,0,0)" />
<line x1="1814" y1="322" x2="1814" y2="371" stroke-width="3.0" stroke="rgb(0,0,0)" />
<line x1="1924" y1="322" x2="1814" y2="322" stroke-width="3.0" stroke="rgb(0,0,0)" />
<line x1="1924" y1="371" x2="1924" y2="322" stroke-width="3.0" stroke="rgb(0,0,0)" />
<line x1="1934" y1="371" x2="1924" y2="371" stroke-width="3.0" stroke="rgb(0,0,0)" />
<line x1="1934" y1="1506" x2="1934" y2="371" stroke-width="3.0" stroke="rgb(0,0,0)" />
<polygon id="GRB" points="1933.91823,1506.385261 1391.769425,1506.385261 1391.769425,1465.25115 224.776282,1465.25115 224.776282,1244.055117 46.391572,1244.055117 46.391572,972.401235 235.556903,310.705962 767.44284,310.705962 767.44284,371.194131 1814.123953,371.194131 1814.123953,321.556814 1924.483457,321.556814 1924.483457,371.194131 1933.91823,371.194131 1933.91823,1506.385261 1391.769425,1506.385261 1391.769425,1465.25115 224.776282,1465.25115 224.776282,1244.055117 46.391572,1244.055117 46.391572,972.401235 235.556903,310.705962 767.44284,310.705962 767.44284,371.194131 1814.123953,371.194131 1814.123953,321.556814 1924.483457,321.556814 1924.483457,371.194131 1933.91823,371.194131" stroke="rgb(0,0,0)" stroke-width="3.5" fill="none" />
<line x1="316" y1="1270" x2="316" y2="1234" stroke-width="0.5" stroke="rgb(200,200,200)" />
<line x1="315" y1="1234" x2="315" y2="1270" stroke-width="0.5" stroke="rgb(200,200,200)" />
<line x1="280" y1="1234" x2="316" y2="1270" stroke-width="0.5" stroke="rgb(200,200,200)" />
<line x1="315" y1="1234" x2="316" y2="1234" stroke-width="0.5" stroke="rgb(200,200,200)" />
<line x1="1725" y1="1351" x2="1734" y2="1301" stroke-width="0.5" stroke="rgb(200,200,200)" />
<line x1="1705" y1="1322" x2="1725" y2="1351" stroke-width="0.5" stroke="rgb(200,200,200)" />
<line x1="1725" y1="1351" x2="1727" y2="1350" stroke-width="0.5" stroke="rgb(200,200,200)" />
<line x1="1727" y1="1350" x2="1706" y2="1321" stroke-width="0.5" stroke="rgb(200,200,200)" />
<line x1="1706" y1="1321" x2="1705" y2="1322" stroke-width="0.5" stroke="rgb(200,200,200)" />
<line x1="183" y1="707" x2="219" y2="743" stroke-width="0.5" stroke="rgb(200,200,200)" />
<line x1="219" y1="707" x2="183" y2="707" stroke-width="0.5" stroke="rgb(200,200,200)" />
<line x1="183" y1="707" x2="183" y2="709" stroke-width="0.5" stroke="rgb(200,200,200)" />
<line x1="183" y1="709" x2="219" y2="709" stroke-width="0.5" stroke="rgb(200,200,200)" />
<line x1="219" y1="709" x2="219" y2="707" stroke-width="0.5" stroke="rgb(200,200,200)" />
<line x1="1843" y1="989" x2="1807" y2="953" stroke-width="0.5" stroke="rgb(200,200,200)" />
<line x1="1807" y1="989" x2="1843" y2="989" stroke-width="0.5" stroke="rgb(200,200,200)" />
<line x1="1843" y1="989" x2="1843" y2="987" stroke-width="0.5" stroke="rgb(200,200,200)" />
<line x1="1843" y1="987" x2="1807" y2="987" stroke-width="0.5" stroke="rgb(200,200,200)" />
<line x1="1807" y1="987" x2="1807" y2="989" stroke-width="0.5" stroke="rgb(200,200,200)" />
<line x1="953" y1="727" x2="989" y2="763" stroke-width="0.5" stroke="rgb(200,200,200)" />
<line x1="989" y1="727" x2="953" y2="727" stroke-width="0.5" stroke="rgb(200,200,200)" />
<line x1="953" y1="727" x2="953" y2="729" stroke-width="0.5" stroke="rgb(200,200,200)" />
<line x1="953" y1="729" x2="989" y2="729" stroke-width="0.5" stroke="rgb(200,200,200)" />
<line x1="989" y1="729" x2="989" y2="727" stroke-width="0.5" stroke="rgb(200,200,200)" />
<line x1="953" y1="821" x2="989" y2="821" stroke-width="0.5" stroke="rgb(200,200,200)" />
<line x1="989" y1="820" x2="953" y2="820" stroke-width="0.5" stroke="rgb(200,200,200)" />
<line x1="989" y1="785" x2="953" y2="821" stroke-width="0.5" stroke="rgb(200,200,200)" />
<line x1="989" y1="820" x2="989" y2="821" stroke-width="0.5" stroke="rgb(200,200,200)" />
<line x1="931" y1="885" x2="895" y2="921" stroke-width="0.5" stroke="rgb(200,200,200)" />
<line x1="931" y1="921" x2="931" y2="885" stroke-width="0.5" stroke="rgb(200,200,200)" />
<line x1="931" y1="885" x2="929" y2="885" stroke-width="0.5" stroke="rgb(200,200,200)" />
<line x1="929" y1="885" x2="929" y2="921" stroke-width="0.5" stroke="rgb(200,200,200)" />
<line x1="929" y1="921" x2="931" y2="921" stroke-width="0.5" stroke="rgb(200,200,200)" />
<line x1="1738" y1="971" x2="1774" y2="935" stroke-width="0.5" stroke="rgb(200,200,200)" />
<line x1="1738" y1="935" x2="1738" y2="971" stroke-width="0.5" stroke="rgb(200,200,200)" />
<line x1="1738" y1="971" x2="1740" y2="971" stroke-width="0.5" stroke="rgb(200,200,200)" />
<line x1="1740" y1="971" x2="1740" y2="935" stroke-width="0.5" stroke="rgb(200,200,200)" />
<line x1="1740" y1="935" x2="1738" y2="935" stroke-width="0.5" stroke="rgb(200,200,200)" />
<line x1="91" y1="37" x2="86" y2="37" stroke-width="0.5" stroke="rgb(200,200,200)" />
<line x1="87" y1="36" x2="87" y2="37" stroke-width="0.5" stroke="rgb(200,200,200)" />
<line x1="87" y1="37" x2="87" y2="36" stroke-width="0.5" stroke="rgb(200,200,200)" />
<line x1="87" y1="36" x2="87" y2="37" stroke-width="0.5" stroke="rgb(200,200,200)" />
<line x1="87" y1="36" x2="87" y2="36" stroke-width="0.5" stroke="rgb(200,200,200)" />
<line x1="90" y1="36" x2="90" y2="37" stroke-width="0.5" stroke="rgb(200,200,200)" />
<line x1="90" y1="36" x2="90" y2="37" stroke-width="0.5" stroke="rgb(200,200,200)" />
<line x1="91" y1="36" x2="91" y2="37" stroke-width="0.5" stroke="rgb(200,200,200)" />
<line x1="1113" y1="545" x2="1131" y2="545" stroke-width="0.5" stroke="rgb(200,200,200)" />
<line x1="649" y1="1460" x2="649" y2="1455" stroke-width="0.5" stroke="rgb(200,200,200)" />
<line x1="572" y1="1460" x2="572" y2="1455" stroke-width="0.5" stroke="rgb(200,200,200)" />
<line x1="1925" y1="998" x2="1803" y2="998" stroke-width="0.5" stroke="rgb(200,200,200)" />
<line x1="1909" y1="994" x2="1807" y2="994" stroke-width="0.5" stroke="rgb(200,200,200)" />
<line x1="1807" y1="989" x2="1807" y2="994" stroke-width="0.5" stroke="rgb(200,200,200)" />
<line x1="1803" y1="989" x2="1803" y2="998" stroke-width="0.5" stroke="rgb(200,200,200)" />
<line x1="1925" y1="998" x2="1925" y2="1496" stroke-width="0.5" stroke="rgb(200,200,200)" />
<line x1="319" y1="1235" x2="319" y2="1454" stroke-width="0.5" stroke="rgb(200,200,200)" />
<line x1="344" y1="1455" x2="339" y2="1455" stroke-width="0.5" stroke="rgb(200,200,200)" />
<line x1="319" y1="1235" x2="316" y2="1235" stroke-width="0.5" stroke="rgb(200,200,200)" />
<line x1="281" y1="1235" x2="265" y2="1235" stroke-width="0.5" stroke="rgb(200,200,200)" />
<line x1="1692" y1="1431" x2="1692" y2="1361" stroke-width="0.5" stroke="rgb(200,200,200)" />
<line x1="1925" y1="998" x2="1925" y2="381" stroke-width="0.5" stroke="rgb(200,200,200)" />
<line x1="1696" y1="797" x2="1803" y2="797" stroke-width="0.5" stroke="rgb(200,200,200)" />
<line x1="1924" y1="792" x2="1696" y2="792" stroke-width="0.5" stroke="rgb(200,200,200)" />
<line x1="1803" y1="797" x2="1803" y2="929" stroke-width="0.5" stroke="rgb(200,200,200)" />
<line x1="1738" y1="929" x2="1715" y2="929" stroke-width="0.5" stroke="rgb(200,200,200)" />
<line x1="1738" y1="935" x2="1715" y2="935" stroke-width="0.5" stroke="rgb(200,200,200)" />
<line x1="1910" y1="797" x2="1807" y2="797" stroke-width="0.5" stroke="rgb(200,200,200)" />
<line x1="1806" y1="1496" x2="1926" y2="1496" stroke-width="0.5" stroke="rgb(200,200,200)" />
<line x1="1392" y1="1506" x2="1934" y2="1506" stroke-width="0.5" stroke="rgb(200,200,200)" />
<line x1="56" y1="974" x2="56" y2="1234" stroke-width="0.5" stroke="rgb(200,200,200)" />
<line x1="46" y1="972" x2="46" y2="1244" stroke-width="0.5" stroke="rgb(200,200,200)" />
<line x1="136" y1="694" x2="243" y2="321" stroke-width="0.5" stroke="rgb(200,200,200)" />
<line x1="46" y1="972" x2="236" y2="311" stroke-width="0.5" stroke="rgb(200,200,200)" />
<line x1="757" y1="321" x2="243" y2="321" stroke-width="0.5" stroke="rgb(200,200,200)" />
<line x1="767" y1="311" x2="236" y2="311" stroke-width="0.5" stroke="rgb(200,200,200)" />
<line x1="1164" y1="381" x2="757" y2="381" stroke-width="0.5" stroke="rgb(200,200,200)" />
<line x1="1814" y1="371" x2="767" y2="371" stroke-width="0.5" stroke="rgb(200,200,200)" />
<line x1="757" y1="381" x2="757" y2="321" stroke-width="0.5" stroke="rgb(200,200,200)" />
<line x1="767" y1="371" x2="767" y2="311" stroke-width="0.5" stroke="rgb(200,200,200)" />
<line x1="1934" y1="371" x2="1934" y2="1506" stroke-width="0.5" stroke="rgb(200,200,200)" />
<line x1="1402" y1="1455" x2="235" y2="1455" stroke-width="0.5" stroke="rgb(200,200,200)" />
<line x1="1392" y1="1465" x2="225" y2="1465" stroke-width="0.5" stroke="rgb(200,200,200)" />
<line x1="1402" y1="1455" x2="1402" y2="1496" stroke-width="0.5" stroke="rgb(200,200,200)" />
<line x1="1392" y1="1465" x2="1392" y2="1506" stroke-width="0.5" stroke="rgb(200,200,200)" />
<line x1="235" y1="1234" x2="235" y2="1455" stroke-width="0.5" stroke="rgb(200,200,200)" />
<line x1="225" y1="1244" x2="225" y2="1465" stroke-width="0.5" stroke="rgb(200,200,200)" />
<line x1="225" y1="1244" x2="46" y2="1244" stroke-width="0.5" stroke="rgb(200,200,200)" />
<line x1="235" y1="1234" x2="56" y2="1234" stroke-width="0.5" stroke="rgb(200,200,200)" />
<line x1="1802" y1="1335" x2="1802" y2="1496" stroke-width="0.5" stroke="rgb(200,200,200)" />
<line x1="1806" y1="1335" x2="1806" y2="1496" stroke-width="0.5" stroke="rgb(200,200,200)" />
<line x1="1692" y1="1326" x2="1692" y2="1496" stroke-width="0.5" stroke="rgb(200,200,200)" />
<line x1="1696" y1="1328" x2="1696" y2="1496" stroke-width="0.5" stroke="rgb(200,200,200)" />
<line x1="1747" y1="1293" x2="1926" y2="1293" stroke-width="0.5" stroke="rgb(200,200,200)" />
<line x1="1746" y1="1289" x2="1926" y2="1289" stroke-width="0.5" stroke="rgb(200,200,200)" />
<line x1="1705" y1="1322" x2="1696" y2="1328" stroke-width="0.5" stroke="rgb(200,200,200)" />
<line x1="1703" y1="1318" x2="1692" y2="1326" stroke-width="0.5" stroke="rgb(200,200,200)" />
<line x1="1696" y1="1496" x2="1802" y2="1496" stroke-width="0.5" stroke="rgb(200,200,200)" />
<line x1="1806" y1="1335" x2="1802" y2="1335" stroke-width="0.5" stroke="rgb(200,200,200)" />
<line x1="1402" y1="1496" x2="1692" y2="1496" stroke-width="0.5" stroke="rgb(200,200,200)" />
<line x1="1746" y1="1289" x2="1732" y2="1298" stroke-width="0.5" stroke="rgb(200,200,200)" />
<line x1="1747" y1="1293" x2="1734" y2="1301" stroke-width="0.5" stroke="rgb(200,200,200)" />
<line x1="1734" y1="1301" x2="1732" y2="1298" stroke-width="0.5" stroke="rgb(200,200,200)" />
<line x1="1705" y1="1322" x2="1703" y2="1318" stroke-width="0.5" stroke="rgb(200,200,200)" />
<line x1="219" y1="946" x2="62" y2="946" stroke-width="0.5" stroke="rgb(200,200,200)" />
<line x1="224" y1="951" x2="62" y2="951" stroke-width="0.5" stroke="rgb(200,200,200)" />
<line x1="219" y1="743" x2="219" y2="946" stroke-width="0.5" stroke="rgb(200,200,200)" />
<line x1="224" y1="743" x2="224" y2="951" stroke-width="0.5" stroke="rgb(200,200,200)" />
<line x1="224" y1="694" x2="136" y2="694" stroke-width="0.5" stroke="rgb(200,200,200)" />
<line x1="219" y1="699" x2="135" y2="699" stroke-width="0.5" stroke="rgb(200,200,200)" />
<line x1="56" y1="974" x2="63" y2="951" stroke-width="0.5" stroke="rgb(200,200,200)" />
<line x1="64" y1="946" x2="135" y2="699" stroke-width="0.5" stroke="rgb(200,200,200)" />
<line x1="224" y1="694" x2="224" y2="707" stroke-width="0.5" stroke="rgb(200,200,200)" />
<line x1="219" y1="699" x2="219" y2="707" stroke-width="0.5" stroke="rgb(200,200,200)" />
<line x1="219" y1="743" x2="224" y2="743" stroke-width="0.5" stroke="rgb(200,200,200)" />
<line x1="219" y1="707" x2="224" y2="707" stroke-width="0.5" stroke="rgb(200,200,200)" />
<line x1="1803" y1="935" x2="1803" y2="953" stroke-width="0.5" stroke="rgb(200,200,200)" />
<line x1="1807" y1="797" x2="1807" y2="953" stroke-width="0.5" stroke="rgb(200,200,200)" />
<line x1="1807" y1="953" x2="1803" y2="953" stroke-width="0.5" stroke="rgb(200,200,200)" />
<line x1="1807" y1="989" x2="1803" y2="989" stroke-width="0.5" stroke="rgb(200,200,200)" />
<line x1="1909" y1="994" x2="1909" y2="796" stroke-width="0.5" stroke="rgb(200,200,200)" />
<line x1="1093" y1="700" x2="1093" y2="920" stroke-width="0.5" stroke="rgb(200,200,200)" />
<line x1="1089" y1="878" x2="1089" y2="920" stroke-width="0.5" stroke="rgb(200,200,200)" />
<line x1="989" y1="874" x2="934" y2="874" stroke-width="0.5" stroke="rgb(200,200,200)" />
<line x1="1089" y1="878" x2="938" y2="878" stroke-width="0.5" stroke="rgb(200,200,200)" />
<line x1="1089" y1="772" x2="993" y2="772" stroke-width="0.5" stroke="rgb(200,200,200)" />
<line x1="1089" y1="776" x2="993" y2="776" stroke-width="0.5" stroke="rgb(200,200,200)" />
<line x1="989" y1="727" x2="989" y2="694" stroke-width="0.5" stroke="rgb(200,200,200)" />
<line x1="993" y1="727" x2="993" y2="694" stroke-width="0.5" stroke="rgb(200,200,200)" />
<line x1="874" y1="889" x2="874" y2="921" stroke-width="0.5" stroke="rgb(200,200,200)" />
<line x1="870" y1="889" x2="870" y2="921" stroke-width="0.5" stroke="rgb(200,200,200)" />
<line x1="779" y1="690" x2="1164" y2="690" stroke-width="0.5" stroke="rgb(200,200,200)" />
<line x1="1093" y1="700" x2="1174" y2="700" stroke-width="0.5" stroke="rgb(200,200,200)" />
<line x1="774" y1="694" x2="774" y2="919" stroke-width="0.5" stroke="rgb(200,200,200)" />
<line x1="770" y1="716" x2="770" y2="919" stroke-width="0.5" stroke="rgb(200,200,200)" />
<line x1="870" y1="921" x2="779" y2="921" stroke-width="0.5" stroke="rgb(200,200,200)" />
<line x1="895" y1="925" x2="779" y2="925" stroke-width="0.5" stroke="rgb(200,200,200)" />
<line x1="938" y1="878" x2="938" y2="925" stroke-width="0.5" stroke="rgb(200,200,200)" />
<line x1="934" y1="874" x2="934" y2="921" stroke-width="0.5" stroke="rgb(200,200,200)" />
<line x1="1089" y1="776" x2="1089" y2="874" stroke-width="0.5" stroke="rgb(200,200,200)" />
<line x1="1089" y1="716" x2="1089" y2="772" stroke-width="0.5" stroke="rgb(200,200,200)" />
<line x1="993" y1="772" x2="993" y2="763" stroke-width="0.5" stroke="rgb(200,200,200)" />
<line x1="989" y1="785" x2="989" y2="763" stroke-width="0.5" stroke="rgb(200,200,200)" />
<line x1="989" y1="763" x2="993" y2="763" stroke-width="0.5" stroke="rgb(200,200,200)" />
<line x1="989" y1="727" x2="993" y2="727" stroke-width="0.5" stroke="rgb(200,200,200)" />
<line x1="989" y1="874" x2="989" y2="821" stroke-width="0.5" stroke="rgb(200,200,200)" />
<line x1="993" y1="874" x2="993" y2="821" stroke-width="0.5" stroke="rgb(200,200,200)" />
<line x1="993" y1="821" x2="989" y2="821" stroke-width="0.5" stroke="rgb(200,200,200)" />
<line x1="993" y1="785" x2="989" y2="785" stroke-width="0.5" stroke="rgb(200,200,200)" />
<line x1="993" y1="785" x2="993" y2="776" stroke-width="0.5" stroke="rgb(200,200,200)" />
<line x1="1089" y1="874" x2="993" y2="874" stroke-width="0.5" stroke="rgb(200,200,200)" />
<line x1="938" y1="925" x2="931" y2="925" stroke-width="0.5" stroke="rgb(200,200,200)" />
<line x1="934" y1="921" x2="931" y2="921" stroke-width="0.5" stroke="rgb(200,200,200)" />
<line x1="895" y1="921" x2="895" y2="925" stroke-width="0.5" stroke="rgb(200,200,200)" />
<line x1="895" y1="921" x2="874" y2="921" stroke-width="0.5" stroke="rgb(200,200,200)" />
<line x1="870" y1="788" x2="870" y2="853" stroke-width="0.5" stroke="rgb(200,200,200)" />
<line x1="874" y1="788" x2="874" y2="853" stroke-width="0.5" stroke="rgb(200,200,200)" />
<line x1="874" y1="853" x2="870" y2="853" stroke-width="0.5" stroke="rgb(200,200,200)" />
<line x1="874" y1="889" x2="870" y2="889" stroke-width="0.5" stroke="rgb(200,200,200)" />
<line x1="874" y1="694" x2="874" y2="752" stroke-width="0.5" stroke="rgb(200,200,200)" />
<line x1="870" y1="694" x2="870" y2="752" stroke-width="0.5" stroke="rgb(200,200,200)" />
<line x1="870" y1="788" x2="874" y2="788" stroke-width="0.5" stroke="rgb(200,200,200)" />
<line x1="870" y1="752" x2="874" y2="752" stroke-width="0.5" stroke="rgb(200,200,200)" />
<line x1="779" y1="694" x2="870" y2="694" stroke-width="0.5" stroke="rgb(200,200,200)" />
<line x1="874" y1="694" x2="989" y2="694" stroke-width="0.5" stroke="rgb(200,200,200)" />
<line x1="1174" y1="700" x2="1174" y2="381" stroke-width="0.5" stroke="rgb(200,200,200)" />
<line x1="1164" y1="690" x2="1164" y2="381" stroke-width="0.5" stroke="rgb(200,200,200)" />
<line x1="1925" y1="381" x2="1174" y2="381" stroke-width="0.5" stroke="rgb(200,200,200)" />
<line x1="1803" y1="935" x2="1774" y2="935" stroke-width="0.5" stroke="rgb(200,200,200)" />
<line x1="1803" y1="929" x2="1774" y2="929" stroke-width="0.5" stroke="rgb(200,200,200)" />
<line x1="1774" y1="929" x2="1774" y2="935" stroke-width="0.5" stroke="rgb(200,200,200)" />
<line x1="1738" y1="929" x2="1738" y2="935" stroke-width="0.5" stroke="rgb(200,200,200)" />
<line x1="1814" y1="322" x2="1924" y2="322" stroke-width="0.5" stroke="rgb(200,200,200)" />
<line x1="1826" y1="334" x2="1912" y2="334" stroke-width="0.5" stroke="rgb(200,200,200)" />
<line x1="1814" y1="371" x2="1814" y2="322" stroke-width="0.5" stroke="rgb(200,200,200)" />
<line x1="1826" y1="371" x2="1826" y2="334" stroke-width="0.5" stroke="rgb(200,200,200)" />
<line x1="1934" y1="371" x2="1826" y2="371" stroke-width="0.5" stroke="rgb(200,200,200)" />
<line x1="1924" y1="322" x2="1924" y2="373" stroke-width="0.5" stroke="rgb(200,200,200)" />
<line x1="1912" y1="334" x2="1912" y2="373" stroke-width="0.5" stroke="rgb(200,200,200)" />
<line x1="1696" y1="792" x2="1696" y2="716" stroke-width="0.5" stroke="rgb(200,200,200)" />
<line x1="1692" y1="920" x2="1692" y2="716" stroke-width="0.5" stroke="rgb(200,200,200)" />
<line x1="1696" y1="920" x2="1696" y2="797" stroke-width="0.5" stroke="rgb(200,200,200)" />
<line x1="993" y1="694" x2="1069" y2="694" stroke-width="0.5" stroke="rgb(200,200,200)" />
<line x1="649" y1="1454" x2="571" y2="1454" stroke-width="0.5" stroke="rgb(200,200,200)" />
<line x1="649" y1="1460" x2="571" y2="1460" stroke-width="0.5" stroke="rgb(200,200,200)" />
<line x1="649" y1="1454" x2="571" y2="1454" stroke-width="0.5" stroke="rgb(200,200,200)" />
<line x1="649" y1="1460" x2="571" y2="1460" stroke-width="0.5" stroke="rgb(200,200,200)" />
<line x1="931" y1="921" x2="931" y2="925" stroke-width="0.5" stroke="rgb(200,200,200)" />
<line x1="802" y1="545" x2="1131" y2="545" stroke-width="0.5" stroke="rgb(200,200,200)" />
<line x1="317" y1="1304" x2="319" y2="1304" stroke-width="0.5" stroke="rgb(200,200,200)" />
<line x1="278" y1="1304" x2="316" y2="1304" stroke-width="0.5" stroke="rgb(200,200,200)" />
<line x1="236" y1="1316" x2="237" y2="1316" stroke-width="0.5" stroke="rgb(200,200,200)" />
<line x1="278" y1="1316" x2="316" y2="1316" stroke-width="0.5" stroke="rgb(200,200,200)" />
<line x1="236" y1="1328" x2="237" y2="1328" stroke-width="0.5" stroke="rgb(200,200,200)" />
<line x1="278" y1="1328" x2="316" y2="1328" stroke-width="0.5" stroke="rgb(200,200,200)" />
<line x1="272" y1="1328" x2="274" y2="1328" stroke-width="0.5" stroke="rgb(200,200,200)" />
<line x1="236" y1="1340" x2="237" y2="1340" stroke-width="0.5" stroke="rgb(200,200,200)" />
<line x1="278" y1="1340" x2="316" y2="1340" stroke-width="0.5" stroke="rgb(200,200,200)" />
<line x1="272" y1="1340" x2="274" y2="1340" stroke-width="0.5" stroke="rgb(200,200,200)" />
<line x1="236" y1="1352" x2="237" y2="1352" stroke-width="0.5" stroke="rgb(200,200,200)" />
<line x1="278" y1="1352" x2="316" y2="1352" stroke-width="0.5" stroke="rgb(200,200,200)" />
<line x1="272" y1="1352" x2="274" y2="1352" stroke-width="0.5" stroke="rgb(200,200,200)" />
<line x1="236" y1="1364" x2="237" y2="1364" stroke-width="0.5" stroke="rgb(200,200,200)" />
<line x1="278" y1="1364" x2="316" y2="1364" stroke-width="0.5" stroke="rgb(200,200,200)" />
<line x1="272" y1="1364" x2="274" y2="1364" stroke-width="0.5" stroke="rgb(200,200,200)" />
<line x1="236" y1="1376" x2="237" y2="1376" stroke-width="0.5" stroke="rgb(200,200,200)" />
<line x1="278" y1="1376" x2="316" y2="1376" stroke-width="0.5" stroke="rgb(200,200,200)" />
<line x1="272" y1="1376" x2="274" y2="1376" stroke-width="0.5" stroke="rgb(200,200,200)" />
<line x1="236" y1="1388" x2="237" y2="1388" stroke-width="0.5" stroke="rgb(200,200,200)" />
<line x1="278" y1="1388" x2="316" y2="1388" stroke-width="0.5" stroke="rgb(200,200,200)" />
<line x1="272" y1="1388" x2="274" y2="1388" stroke-width="0.5" stroke="rgb(200,200,200)" />
<line x1="236" y1="1400" x2="237" y2="1400" stroke-width="0.5" stroke="rgb(200,200,200)" />
<line x1="278" y1="1400" x2="316" y2="1400" stroke-width="0.5" stroke="rgb(200,200,200)" />
<line x1="272" y1="1400" x2="274" y2="1400" stroke-width="0.5" stroke="rgb(200,200,200)" />
<line x1="238" y1="1400" x2="236" y2="1400" stroke-width="0.5" stroke="rgb(200,200,200)" />
<line x1="272" y1="1400" x2="239" y2="1400" stroke-width="0.5" stroke="rgb(200,200,200)" />
<line x1="277" y1="1400" x2="276" y2="1400" stroke-width="0.5" stroke="rgb(200,200,200)" />
<line x1="238" y1="1388" x2="236" y2="1388" stroke-width="0.5" stroke="rgb(200,200,200)" />
<line x1="272" y1="1388" x2="239" y2="1388" stroke-width="0.5" stroke="rgb(200,200,200)" />
<line x1="277" y1="1388" x2="276" y2="1388" stroke-width="0.5" stroke="rgb(200,200,200)" />
<line x1="238" y1="1376" x2="236" y2="1376" stroke-width="0.5" stroke="rgb(200,200,200)" />
<line x1="272" y1="1376" x2="239" y2="1376" stroke-width="0.5" stroke="rgb(200,200,200)" />
<line x1="277" y1="1376" x2="276" y2="1376" stroke-width="0.5" stroke="rgb(200,200,200)" />
<line x1="238" y1="1364" x2="236" y2="1364" stroke-width="0.5" stroke="rgb(200,200,200)" />
<line x1="272" y1="1364" x2="239" y2="1364" stroke-width="0.5" stroke="rgb(200,200,200)" />
<line x1="277" y1="1364" x2="276" y2="1364" stroke-width="0.5" stroke="rgb(200,200,200)" />
<line x1="238" y1="1352" x2="236" y2="1352" stroke-width="0.5" stroke="rgb(200,200,200)" />
<line x1="272" y1="1352" x2="239" y2="1352" stroke-width="0.5" stroke="rgb(200,200,200)" />
<line x1="277" y1="1352" x2="276" y2="1352" stroke-width="0.5" stroke="rgb(200,200,200)" />
<line x1="238" y1="1340" x2="236" y2="1340" stroke-width="0.5" stroke="rgb(200,200,200)" />
<line x1="272" y1="1340" x2="239" y2="1340" stroke-width="0.5" stroke="rgb(200,200,200)" />
<line x1="277" y1="1340" x2="276" y2="1340" stroke-width="0.5" stroke="rgb(200,200,200)" />
<line x1="238" y1="1328" x2="236" y2="1328" stroke-width="0.5" stroke="rgb(200,200,200)" />
<line x1="272" y1="1328" x2="239" y2="1328" stroke-width="0.5" stroke="rgb(200,200,200)" />
<line x1="277" y1="1328" x2="276" y2="1328" stroke-width="0.5" stroke="rgb(200,200,200)" />
<line x1="251" y1="1321" x2="236" y2="1316" stroke-width="0.5" stroke="rgb(200,200,200)" />
<line x1="251" y1="1327" x2="251" y2="1321" stroke-width="0.5" stroke="rgb(200,200,200)" />
<line x1="257" y1="1316" x2="251" y2="1327" stroke-width="0.5" stroke="rgb(200,200,200)" />
<line x1="257" y1="1323" x2="257" y2="1316" stroke-width="0.5" stroke="rgb(200,200,200)" />
<line x1="275" y1="1328" x2="257" y2="1323" stroke-width="0.5" stroke="rgb(200,200,200)" />
<line x1="1859" y1="932" x2="1858" y2="932" stroke-width="0.5" stroke="rgb(200,200,200)" />
<line x1="1905" y1="932" x2="1861" y2="932" stroke-width="0.5" stroke="rgb(200,200,200)" />
<line x1="1908" y1="932" x2="1906" y2="932" stroke-width="0.5" stroke="rgb(200,200,200)" />
<line x1="1859" y1="921" x2="1858" y2="921" stroke-width="0.5" stroke="rgb(200,200,200)" />
<line x1="1905" y1="921" x2="1861" y2="921" stroke-width="0.5" stroke="rgb(200,200,200)" />
<line x1="1908" y1="921" x2="1906" y2="921" stroke-width="0.5" stroke="rgb(200,200,200)" />
<line x1="1859" y1="910" x2="1858" y2="910" stroke-width="0.5" stroke="rgb(200,200,200)" />
<line x1="1905" y1="910" x2="1861" y2="910" stroke-width="0.5" stroke="rgb(200,200,200)" />
<line x1="1908" y1="910" x2="1906" y2="910" stroke-width="0.5" stroke="rgb(200,200,200)" />
<line x1="1859" y1="899" x2="1858" y2="899" stroke-width="0.5" stroke="rgb(200,200,200)" />
<line x1="1905" y1="899" x2="1861" y2="899" stroke-width="0.5" stroke="rgb(200,200,200)" />
<line x1="1908" y1="899" x2="1906" y2="899" stroke-width="0.5" stroke="rgb(200,200,200)" />
<line x1="1859" y1="888" x2="1858" y2="888" stroke-width="0.5" stroke="rgb(200,200,200)" />
<line x1="1905" y1="888" x2="1861" y2="888" stroke-width="0.5" stroke="rgb(200,200,200)" />
<line x1="1908" y1="888" x2="1906" y2="888" stroke-width="0.5" stroke="rgb(200,200,200)" />
<line x1="1859" y1="877" x2="1858" y2="877" stroke-width="0.5" stroke="rgb(200,200,200)" />
<line x1="1905" y1="877" x2="1861" y2="877" stroke-width="0.5" stroke="rgb(200,200,200)" />
<line x1="1908" y1="877" x2="1906" y2="877" stroke-width="0.5" stroke="rgb(200,200,200)" />
<line x1="1859" y1="866" x2="1858" y2="866" stroke-width="0.5" stroke="rgb(200,200,200)" />
<line x1="1905" y1="866" x2="1861" y2="866" stroke-width="0.5" stroke="rgb(200,200,200)" />
<line x1="1908" y1="866" x2="1906" y2="866" stroke-width="0.5" stroke="rgb(200,200,200)" />
<line x1="1859" y1="855" x2="1858" y2="855" stroke-width="0.5" stroke="rgb(200,200,200)" />
<line x1="1905" y1="855" x2="1861" y2="855" stroke-width="0.5" stroke="rgb(200,200,200)" />
<line x1="1908" y1="855" x2="1906" y2="855" stroke-width="0.5" stroke="rgb(200,200,200)" />
<line x1="1859" y1="844" x2="1858" y2="844" stroke-width="0.5" stroke="rgb(200,200,200)" />
<line x1="1905" y1="844" x2="1861" y2="844" stroke-width="0.5" stroke="rgb(200,200,200)" />
<line x1="1908" y1="844" x2="1906" y2="844" stroke-width="0.5" stroke="rgb(200,200,200)" />
<line x1="1856" y1="844" x2="1858" y2="844" stroke-width="0.5" stroke="rgb(200,200,200)" />
<line x1="1811" y1="844" x2="1855" y2="844" stroke-width="0.5" stroke="rgb(200,200,200)" />
<line x1="1808" y1="844" x2="1810" y2="844" stroke-width="0.5" stroke="rgb(200,200,200)" />
<line x1="1856" y1="855" x2="1858" y2="855" stroke-width="0.5" stroke="rgb(200,200,200)" />
<line x1="1811" y1="855" x2="1855" y2="855" stroke-width="0.5" stroke="rgb(200,200,200)" />
<line x1="1808" y1="855" x2="1810" y2="855" stroke-width="0.5" stroke="rgb(200,200,200)" />
<line x1="1856" y1="866" x2="1858" y2="866" stroke-width="0.5" stroke="rgb(200,200,200)" />
<line x1="1811" y1="866" x2="1855" y2="866" stroke-width="0.5" stroke="rgb(200,200,200)" />
<line x1="1808" y1="866" x2="1810" y2="866" stroke-width="0.5" stroke="rgb(200,200,200)" />
<line x1="1856" y1="877" x2="1858" y2="877" stroke-width="0.5" stroke="rgb(200,200,200)" />
<line x1="1811" y1="877" x2="1855" y2="877" stroke-width="0.5" stroke="rgb(200,200,200)" />
<line x1="1808" y1="877" x2="1810" y2="877" stroke-width="0.5" stroke="rgb(200,200,200)" />
<line x1="1856" y1="888" x2="1858" y2="888" stroke-width="0.5" stroke="rgb(200,200,200)" />
<line x1="1811" y1="888" x2="1855" y2="888" stroke-width="0.5" stroke="rgb(200,200,200)" />
<line x1="1808" y1="888" x2="1810" y2="888" stroke-width="0.5" stroke="rgb(200,200,200)" />
<line x1="1856" y1="899" x2="1858" y2="899" stroke-width="0.5" stroke="rgb(200,200,200)" />
<line x1="1811" y1="899" x2="1855" y2="899" stroke-width="0.5" stroke="rgb(200,200,200)" />
<line x1="1808" y1="899" x2="1810" y2="899" stroke-width="0.5" stroke="rgb(200,200,200)" />
<line x1="1856" y1="910" x2="1858" y2="910" stroke-width="0.5" stroke="rgb(200,200,200)" />
<line x1="1811" y1="910" x2="1855" y2="910" stroke-width="0.5" stroke="rgb(200,200,200)" />
<line x1="1808" y1="910" x2="1810" y2="910" stroke-width="0.5" stroke="rgb(200,200,200)" />
<line x1="1844" y1="916" x2="1857" y2="921" stroke-width="0.5" stroke="rgb(200,200,200)" />
<line x1="1834" y1="911" x2="1834" y2="916" stroke-width="0.5" stroke="rgb(200,200,200)" />
<line x1="1827" y1="921" x2="1834" y2="911" stroke-width="0.5" stroke="rgb(200,200,200)" />
<line x1="1827" y1="915" x2="1827" y2="921" stroke-width="0.5" stroke="rgb(200,200,200)" />
<line x1="1808" y1="910" x2="1827" y2="915" stroke-width="0.5" stroke="rgb(200,200,200)" />
<line x1="1836" y1="913" x2="1844" y2="916" stroke-width="0.5" stroke="rgb(200,200,200)" />
<line x1="1834" y1="916" x2="1836" y2="913" stroke-width="0.5" stroke="rgb(200,200,200)" />
<line x1="317" y1="1400" x2="317" y2="1304" stroke-width="0.5" stroke="rgb(200,200,200)" />
<line x1="316" y1="1400" x2="316" y2="1304" stroke-width="0.5" stroke="rgb(200,200,200)" />
<line x1="278" y1="1400" x2="278" y2="1304" stroke-width="0.5" stroke="rgb(200,200,200)" />
<line x1="276" y1="1400" x2="276" y2="1304" stroke-width="0.5" stroke="rgb(200,200,200)" />
<line x1="238" y1="1317" x2="238" y2="1400" stroke-width="0.5" stroke="rgb(200,200,200)" />
<line x1="239" y1="1317" x2="239" y2="1400" stroke-width="0.5" stroke="rgb(200,200,200)" />
<line x1="272" y1="1327" x2="272" y2="1400" stroke-width="0.5" stroke="rgb(200,200,200)" />
<line x1="273" y1="1328" x2="273" y2="1400" stroke-width="0.5" stroke="rgb(200,200,200)" />
<line x1="1859" y1="844" x2="1859" y2="932" stroke-width="0.5" stroke="rgb(200,200,200)" />
<line x1="1861" y1="844" x2="1861" y2="932" stroke-width="0.5" stroke="rgb(200,200,200)" />
<line x1="1905" y1="844" x2="1905" y2="932" stroke-width="0.5" stroke="rgb(200,200,200)" />
<line x1="1906" y1="844" x2="1906" y2="932" stroke-width="0.5" stroke="rgb(200,200,200)" />
<line x1="1856" y1="921" x2="1856" y2="844" stroke-width="0.5" stroke="rgb(200,200,200)" />
<line x1="1855" y1="920" x2="1855" y2="844" stroke-width="0.5" stroke="rgb(200,200,200)" />
<line x1="1811" y1="911" x2="1811" y2="844" stroke-width="0.5" stroke="rgb(200,200,200)" />
<line x1="1810" y1="911" x2="1810" y2="844" stroke-width="0.5" stroke="rgb(200,200,200)" />
<line x1="609" y1="1457" x2="573" y2="1457" stroke-width="0.5" stroke="rgb(200,200,200)" />
<line x1="647" y1="1457" x2="611" y2="1457" stroke-width="0.5" stroke="rgb(200,200,200)" />
</svg>
