<svg xmlns="http://www.w3.org/2000/svg" version="1.1" width="1982" height="1255">style="background-color:rgb(none)">
<polygon id="GRB-0006" points="224,586 224,843 136,843 243,1216 757,1216 757,1156 1164,1156 1164,847 770,847 770,612 938,612 938,659 1089,659 1089,617 1093,617 1093,837 1174,837 1174,1156 1925,1156 1925,745 1696,745 1696,821 1692,821 1692,602 1803,602 1803,539 1925,539 1925,248 1746,248 1692,211 1692,41 1402,41 1402,82 649,82 649,83 571,83 571,82 319,82 319,303 56,303 56,563 63,586" stroke="rgb(none)" stroke-width="1.3" fill="none" />
<polygon id="GRB-0009" points="1803,608 1774,608 1774,602 1738,602 1738,608 1696,608 1696,740 1803,740" stroke="rgb(none)" stroke-width="1.3" fill="none" />
<polygon id="GRB-0010" points="1909,543 1807,543 1807,548 1803,548 1803,584 1807,584 1807,740 1909,740" stroke="rgb(none)" stroke-width="1.3" fill="none" />
<polygon id="GRB-0007" points="1925,41 1806,41 1806,202 1802,202 1802,244 1925,244" stroke="rgb(none)" stroke-width="1.3" fill="none" />
<polygon id="GRB-0008" points="1802,41 1696,41 1696,209 1705,215 1703,219 1732,239 1734,236 1747,244 1802,244" stroke="rgb(none)" stroke-width="1.3" fill="none" />
<polygon id="GRB-0004" points="319,82 235,82 235,303 319,303" stroke="rgb(none)" stroke-width="1.3" fill="none" />
<polygon id="GRB-0005" points="219,591 64,591 135,838 219,838 219,830 224,830 224,794 219,794" stroke="rgb(none)" stroke-width="1.3" fill="none" />
<polygon id="GRB-0002" points="1089,765 993,765 993,774 989,774 989,810 993,810 993,843 1089,843" stroke="rgb(none)" stroke-width="1.3" fill="none" />
<polygon id="GRB-0003" points="1089,663 993,663 993,716 989,716 989,752 993,752 993,761 1089,761" stroke="rgb(none)" stroke-width="1.3" fill="none" />
<polygon id="GRB-0001" points="874,843 989,843 989,663 934,663 934,616 931,616 931,612 895,612 895,616 874,616" stroke="rgb(none)" stroke-width="1.3" fill="none" />
<polygon id="GRB-0001B" points="870,684 874,684 874,648 870,648 870,616 774,616 774,716 870,716" stroke="rgb(none)" stroke-width="1.3" fill="none" />
<polygon id="GRB-0001A" points="874,749 870,749 870,716 774,716 774,843 870,843 870,785 874,785" stroke="rgb(none)" stroke-width="1.3" fill="none" />
<line x1="1392" y1="31" x2="1934" y2="31" stroke-width="3.0" stroke="rgb(0,0,0)" />
<line x1="1392" y1="72" x2="1392" y2="31" stroke-width="3.0" stroke="rgb(0,0,0)" />
<line x1="225" y1="72" x2="1392" y2="72" stroke-width="3.0" stroke="rgb(0,0,0)" />
<line x1="225" y1="293" x2="225" y2="72" stroke-width="3.0" stroke="rgb(0,0,0)" />
<line x1="46" y1="293" x2="225" y2="293" stroke-width="3.0" stroke="rgb(0,0,0)" />
<line x1="46" y1="565" x2="46" y2="293" stroke-width="3.0" stroke="rgb(0,0,0)" />
<line x1="236" y1="1226" x2="46" y2="565" stroke-width="3.0" stroke="rgb(0,0,0)" />
<line x1="767" y1="1226" x2="236" y2="1226" stroke-width="3.0" stroke="rgb(0,0,0)" />
<line x1="767" y1="1166" x2="767" y2="1226" stroke-width="3.0" stroke="rgb(0,0,0)" />
<line x1="1814" y1="1166" x2="767" y2="1166" stroke-width="3.0" stroke="rgb(0,0,0)" />
<line x1="1814" y1="1215" x2="1814" y2="1166" stroke-width="3.0" stroke="rgb(0,0,0)" />
<line x1="1924" y1="1215" x2="1814" y2="1215" stroke-width="3.0" stroke="rgb(0,0,0)" />
<line x1="1924" y1="1166" x2="1924" y2="1215" stroke-width="3.0" stroke="rgb(0,0,0)" />
<line x1="1934" y1="1166" x2="1924" y2="1166" stroke-width="3.0" stroke="rgb(0,0,0)" />
<line x1="1934" y1="31" x2="1934" y2="1166" stroke-width="3.0" stroke="rgb(0,0,0)" />
<line x1="1392" y1="31" x2="1934" y2="31" stroke-width="3.0" stroke="rgb(0,0,0)" />
<line x1="1934" y1="31" x2="1934" y2="1166" stroke-width="3.0" stroke="rgb(0,0,0)" />
<line x1="1934" y1="1166" x2="1924" y2="1166" stroke-width="3.0" stroke="rgb(0,0,0)" />
<line x1="1924" y1="1166" x2="1924" y2="1215" stroke-width="3.0" stroke="rgb(0,0,0)" />
<line x1="1924" y1="1215" x2="1814" y2="1215" stroke-width="3.0" stroke="rgb(0,0,0)" />
<line x1="1814" y1="1215" x2="1814" y2="1166" stroke-width="3.0" stroke="rgb(0,0,0)" />
<line x1="1814" y1="1166" x2="767" y2="1166" stroke-width="3.0" stroke="rgb(0,0,0)" />
<line x1="767" y1="1166" x2="767" y2="1226" stroke-width="3.0" stroke="rgb(0,0,0)" />
<line x1="767" y1="1226" x2="236" y2="1226" stroke-width="3.0" stroke="rgb(0,0,0)" />
<line x1="236" y1="1226" x2="46" y2="565" stroke-width="3.0" stroke="rgb(0,0,0)" />
<line x1="46" y1="565" x2="46" y2="293" stroke-width="3.0" stroke="rgb(0,0,0)" />
<line x1="46" y1="293" x2="225" y2="293" stroke-width="3.0" stroke="rgb(0,0,0)" />
<line x1="225" y1="293" x2="225" y2="72" stroke-width="3.0" stroke="rgb(0,0,0)" />
<line x1="225" y1="72" x2="1392" y2="72" stroke-width="3.0" stroke="rgb(0,0,0)" />
<line x1="1392" y1="72" x2="1392" y2="31" stroke-width="3.0" stroke="rgb(0,0,0)" />
<line x1="931" y1="616" x2="931" y2="612" stroke-width="0.5" stroke="rgb(200,200,200)" />
<line x1="649" y1="77" x2="571" y2="77" stroke-width="0.5" stroke="rgb(200,200,200)" />
<line x1="649" y1="83" x2="571" y2="83" stroke-width="0.5" stroke="rgb(200,200,200)" />
<line x1="649" y1="77" x2="571" y2="77" stroke-width="0.5" stroke="rgb(200,200,200)" />
<line x1="649" y1="83" x2="571" y2="83" stroke-width="0.5" stroke="rgb(200,200,200)" />
<line x1="993" y1="843" x2="1069" y2="843" stroke-width="0.5" stroke="rgb(200,200,200)" />
<line x1="1696" y1="617" x2="1696" y2="740" stroke-width="0.5" stroke="rgb(200,200,200)" />
<line x1="1692" y1="617" x2="1692" y2="821" stroke-width="0.5" stroke="rgb(200,200,200)" />
<line x1="1696" y1="745" x2="1696" y2="821" stroke-width="0.5" stroke="rgb(200,200,200)" />
<line x1="1912" y1="1203" x2="1912" y2="1164" stroke-width="0.5" stroke="rgb(200,200,200)" />
<line x1="1924" y1="1215" x2="1924" y2="1164" stroke-width="0.5" stroke="rgb(200,200,200)" />
<line x1="1934" y1="1166" x2="1826" y2="1166" stroke-width="0.5" stroke="rgb(200,200,200)" />
<line x1="1826" y1="1166" x2="1826" y2="1203" stroke-width="0.5" stroke="rgb(200,200,200)" />
<line x1="1814" y1="1166" x2="1814" y2="1215" stroke-width="0.5" stroke="rgb(200,200,200)" />
<line x1="1826" y1="1203" x2="1912" y2="1203" stroke-width="0.5" stroke="rgb(200,200,200)" />
<line x1="1814" y1="1215" x2="1924" y2="1215" stroke-width="0.5" stroke="rgb(200,200,200)" />
<line x1="1738" y1="608" x2="1738" y2="602" stroke-width="0.5" stroke="rgb(200,200,200)" />
<line x1="1774" y1="608" x2="1774" y2="602" stroke-width="0.5" stroke="rgb(200,200,200)" />
<line x1="1803" y1="608" x2="1774" y2="608" stroke-width="0.5" stroke="rgb(200,200,200)" />
<line x1="1803" y1="602" x2="1774" y2="602" stroke-width="0.5" stroke="rgb(200,200,200)" />
<line x1="1925" y1="1156" x2="1174" y2="1156" stroke-width="0.5" stroke="rgb(200,200,200)" />
<line x1="1164" y1="847" x2="1164" y2="1156" stroke-width="0.5" stroke="rgb(200,200,200)" />
<line x1="1174" y1="837" x2="1174" y2="1156" stroke-width="0.5" stroke="rgb(200,200,200)" />
<line x1="874" y1="843" x2="989" y2="843" stroke-width="0.5" stroke="rgb(200,200,200)" />
<line x1="779" y1="843" x2="870" y2="843" stroke-width="0.5" stroke="rgb(200,200,200)" />
<line x1="870" y1="785" x2="874" y2="785" stroke-width="0.5" stroke="rgb(200,200,200)" />
<line x1="870" y1="749" x2="874" y2="749" stroke-width="0.5" stroke="rgb(200,200,200)" />
<line x1="870" y1="843" x2="870" y2="785" stroke-width="0.5" stroke="rgb(200,200,200)" />
<line x1="874" y1="843" x2="874" y2="785" stroke-width="0.5" stroke="rgb(200,200,200)" />
<line x1="874" y1="648" x2="870" y2="648" stroke-width="0.5" stroke="rgb(200,200,200)" />
<line x1="874" y1="684" x2="870" y2="684" stroke-width="0.5" stroke="rgb(200,200,200)" />
<line x1="874" y1="749" x2="874" y2="684" stroke-width="0.5" stroke="rgb(200,200,200)" />
<line x1="870" y1="749" x2="870" y2="684" stroke-width="0.5" stroke="rgb(200,200,200)" />
<line x1="895" y1="616" x2="874" y2="616" stroke-width="0.5" stroke="rgb(200,200,200)" />
<line x1="895" y1="616" x2="895" y2="612" stroke-width="0.5" stroke="rgb(200,200,200)" />
<line x1="934" y1="616" x2="931" y2="616" stroke-width="0.5" stroke="rgb(200,200,200)" />
<line x1="938" y1="612" x2="931" y2="612" stroke-width="0.5" stroke="rgb(200,200,200)" />
<line x1="1089" y1="663" x2="993" y2="663" stroke-width="0.5" stroke="rgb(200,200,200)" />
<line x1="993" y1="752" x2="993" y2="761" stroke-width="0.5" stroke="rgb(200,200,200)" />
<line x1="993" y1="752" x2="989" y2="752" stroke-width="0.5" stroke="rgb(200,200,200)" />
<line x1="993" y1="716" x2="989" y2="716" stroke-width="0.5" stroke="rgb(200,200,200)" />
<line x1="993" y1="663" x2="993" y2="716" stroke-width="0.5" stroke="rgb(200,200,200)" />
<line x1="989" y1="663" x2="989" y2="716" stroke-width="0.5" stroke="rgb(200,200,200)" />
<line x1="989" y1="810" x2="993" y2="810" stroke-width="0.5" stroke="rgb(200,200,200)" />
<line x1="989" y1="774" x2="993" y2="774" stroke-width="0.5" stroke="rgb(200,200,200)" />
<line x1="989" y1="752" x2="989" y2="774" stroke-width="0.5" stroke="rgb(200,200,200)" />
<line x1="993" y1="765" x2="993" y2="774" stroke-width="0.5" stroke="rgb(200,200,200)" />
<line x1="1089" y1="821" x2="1089" y2="765" stroke-width="0.5" stroke="rgb(200,200,200)" />
<line x1="1089" y1="761" x2="1089" y2="663" stroke-width="0.5" stroke="rgb(200,200,200)" />
<line x1="934" y1="663" x2="934" y2="616" stroke-width="0.5" stroke="rgb(200,200,200)" />
<line x1="938" y1="659" x2="938" y2="612" stroke-width="0.5" stroke="rgb(200,200,200)" />
<line x1="895" y1="612" x2="779" y2="612" stroke-width="0.5" stroke="rgb(200,200,200)" />
<line x1="870" y1="616" x2="779" y2="616" stroke-width="0.5" stroke="rgb(200,200,200)" />
<line x1="770" y1="821" x2="770" y2="618" stroke-width="0.5" stroke="rgb(200,200,200)" />
<line x1="774" y1="843" x2="774" y2="618" stroke-width="0.5" stroke="rgb(200,200,200)" />
<line x1="1093" y1="837" x2="1174" y2="837" stroke-width="0.5" stroke="rgb(200,200,200)" />
<line x1="779" y1="847" x2="1164" y2="847" stroke-width="0.5" stroke="rgb(200,200,200)" />
<line x1="870" y1="648" x2="870" y2="616" stroke-width="0.5" stroke="rgb(200,200,200)" />
<line x1="874" y1="648" x2="874" y2="616" stroke-width="0.5" stroke="rgb(200,200,200)" />
<line x1="993" y1="810" x2="993" y2="843" stroke-width="0.5" stroke="rgb(200,200,200)" />
<line x1="989" y1="810" x2="989" y2="843" stroke-width="0.5" stroke="rgb(200,200,200)" />
<line x1="1089" y1="761" x2="993" y2="761" stroke-width="0.5" stroke="rgb(200,200,200)" />
<line x1="1089" y1="765" x2="993" y2="765" stroke-width="0.5" stroke="rgb(200,200,200)" />
<line x1="1089" y1="659" x2="938" y2="659" stroke-width="0.5" stroke="rgb(200,200,200)" />
<line x1="989" y1="663" x2="934" y2="663" stroke-width="0.5" stroke="rgb(200,200,200)" />
<line x1="1089" y1="659" x2="1089" y2="617" stroke-width="0.5" stroke="rgb(200,200,200)" />
<line x1="1093" y1="837" x2="1093" y2="617" stroke-width="0.5" stroke="rgb(200,200,200)" />
<line x1="1909" y1="543" x2="1909" y2="741" stroke-width="0.5" stroke="rgb(200,200,200)" />
<line x1="1807" y1="548" x2="1803" y2="548" stroke-width="0.5" stroke="rgb(200,200,200)" />
<line x1="1807" y1="584" x2="1803" y2="584" stroke-width="0.5" stroke="rgb(200,200,200)" />
<line x1="1807" y1="740" x2="1807" y2="584" stroke-width="0.5" stroke="rgb(200,200,200)" />
<line x1="1803" y1="602" x2="1803" y2="584" stroke-width="0.5" stroke="rgb(200,200,200)" />
<line x1="219" y1="830" x2="224" y2="830" stroke-width="0.5" stroke="rgb(200,200,200)" />
<line x1="219" y1="794" x2="224" y2="794" stroke-width="0.5" stroke="rgb(200,200,200)" />
<line x1="219" y1="838" x2="219" y2="830" stroke-width="0.5" stroke="rgb(200,200,200)" />
<line x1="224" y1="843" x2="224" y2="830" stroke-width="0.5" stroke="rgb(200,200,200)" />
<line x1="64" y1="591" x2="135" y2="838" stroke-width="0.5" stroke="rgb(200,200,200)" />
<line x1="56" y1="563" x2="63" y2="586" stroke-width="0.5" stroke="rgb(200,200,200)" />
<line x1="219" y1="838" x2="135" y2="838" stroke-width="0.5" stroke="rgb(200,200,200)" />
<line x1="224" y1="843" x2="136" y2="843" stroke-width="0.5" stroke="rgb(200,200,200)" />
<line x1="224" y1="794" x2="224" y2="586" stroke-width="0.5" stroke="rgb(200,200,200)" />
<line x1="219" y1="794" x2="219" y2="591" stroke-width="0.5" stroke="rgb(200,200,200)" />
<line x1="224" y1="586" x2="62" y2="586" stroke-width="0.5" stroke="rgb(200,200,200)" />
<line x1="219" y1="591" x2="62" y2="591" stroke-width="0.5" stroke="rgb(200,200,200)" />
<line x1="1705" y1="215" x2="1703" y2="219" stroke-width="0.5" stroke="rgb(200,200,200)" />
<line x1="1734" y1="236" x2="1732" y2="239" stroke-width="0.5" stroke="rgb(200,200,200)" />
<line x1="1747" y1="244" x2="1734" y2="236" stroke-width="0.5" stroke="rgb(200,200,200)" />
<line x1="1746" y1="248" x2="1732" y2="239" stroke-width="0.5" stroke="rgb(200,200,200)" />
<line x1="1402" y1="41" x2="1692" y2="41" stroke-width="0.5" stroke="rgb(200,200,200)" />
<line x1="1806" y1="202" x2="1802" y2="202" stroke-width="0.5" stroke="rgb(200,200,200)" />
<line x1="1696" y1="41" x2="1802" y2="41" stroke-width="0.5" stroke="rgb(200,200,200)" />
<line x1="1703" y1="219" x2="1692" y2="211" stroke-width="0.5" stroke="rgb(200,200,200)" />
<line x1="1705" y1="215" x2="1696" y2="209" stroke-width="0.5" stroke="rgb(200,200,200)" />
<line x1="1746" y1="248" x2="1926" y2="248" stroke-width="0.5" stroke="rgb(200,200,200)" />
<line x1="1747" y1="244" x2="1926" y2="244" stroke-width="0.5" stroke="rgb(200,200,200)" />
<line x1="1696" y1="209" x2="1696" y2="41" stroke-width="0.5" stroke="rgb(200,200,200)" />
<line x1="1692" y1="211" x2="1692" y2="41" stroke-width="0.5" stroke="rgb(200,200,200)" />
<line x1="1806" y1="202" x2="1806" y2="41" stroke-width="0.5" stroke="rgb(200,200,200)" />
<line x1="1802" y1="202" x2="1802" y2="41" stroke-width="0.5" stroke="rgb(200,200,200)" />
<line x1="235" y1="303" x2="56" y2="303" stroke-width="0.5" stroke="rgb(200,200,200)" />
<line x1="225" y1="293" x2="46" y2="293" stroke-width="0.5" stroke="rgb(200,200,200)" />
<line x1="225" y1="293" x2="225" y2="72" stroke-width="0.5" stroke="rgb(200,200,200)" />
<line x1="235" y1="303" x2="235" y2="82" stroke-width="0.5" stroke="rgb(200,200,200)" />
<line x1="1392" y1="72" x2="1392" y2="31" stroke-width="0.5" stroke="rgb(200,200,200)" />
<line x1="1402" y1="82" x2="1402" y2="41" stroke-width="0.5" stroke="rgb(200,200,200)" />
<line x1="1392" y1="72" x2="225" y2="72" stroke-width="0.5" stroke="rgb(200,200,200)" />
<line x1="1402" y1="82" x2="235" y2="82" stroke-width="0.5" stroke="rgb(200,200,200)" />
<line x1="1934" y1="1166" x2="1934" y2="31" stroke-width="0.5" stroke="rgb(200,200,200)" />
<line x1="767" y1="1166" x2="767" y2="1226" stroke-width="0.5" stroke="rgb(200,200,200)" />
<line x1="757" y1="1156" x2="757" y2="1216" stroke-width="0.5" stroke="rgb(200,200,200)" />
<line x1="1814" y1="1166" x2="767" y2="1166" stroke-width="0.5" stroke="rgb(200,200,200)" />
<line x1="1164" y1="1156" x2="757" y2="1156" stroke-width="0.5" stroke="rgb(200,200,200)" />
<line x1="767" y1="1226" x2="236" y2="1226" stroke-width="0.5" stroke="rgb(200,200,200)" />
<line x1="757" y1="1216" x2="243" y2="1216" stroke-width="0.5" stroke="rgb(200,200,200)" />
<line x1="46" y1="565" x2="236" y2="1226" stroke-width="0.5" stroke="rgb(200,200,200)" />
<line x1="136" y1="843" x2="243" y2="1216" stroke-width="0.5" stroke="rgb(200,200,200)" />
<line x1="46" y1="565" x2="46" y2="293" stroke-width="0.5" stroke="rgb(200,200,200)" />
<line x1="56" y1="563" x2="56" y2="303" stroke-width="0.5" stroke="rgb(200,200,200)" />
<line x1="1392" y1="31" x2="1934" y2="31" stroke-width="0.5" stroke="rgb(200,200,200)" />
<line x1="1806" y1="41" x2="1926" y2="41" stroke-width="0.5" stroke="rgb(200,200,200)" />
<line x1="1910" y1="740" x2="1807" y2="740" stroke-width="0.5" stroke="rgb(200,200,200)" />
<line x1="1738" y1="602" x2="1715" y2="602" stroke-width="0.5" stroke="rgb(200,200,200)" />
<line x1="1738" y1="608" x2="1715" y2="608" stroke-width="0.5" stroke="rgb(200,200,200)" />
<line x1="1803" y1="740" x2="1803" y2="608" stroke-width="0.5" stroke="rgb(200,200,200)" />
<line x1="1924" y1="745" x2="1696" y2="745" stroke-width="0.5" stroke="rgb(200,200,200)" />
<line x1="1696" y1="740" x2="1803" y2="740" stroke-width="0.5" stroke="rgb(200,200,200)" />
<line x1="1925" y1="539" x2="1925" y2="1156" stroke-width="0.5" stroke="rgb(200,200,200)" />
<line x1="1692" y1="106" x2="1692" y2="176" stroke-width="0.5" stroke="rgb(200,200,200)" />
<line x1="281" y1="302" x2="265" y2="302" stroke-width="0.5" stroke="rgb(200,200,200)" />
<line x1="319" y1="302" x2="316" y2="302" stroke-width="0.5" stroke="rgb(200,200,200)" />
<line x1="344" y1="82" x2="339" y2="82" stroke-width="0.5" stroke="rgb(200,200,200)" />
<line x1="319" y1="302" x2="319" y2="83" stroke-width="0.5" stroke="rgb(200,200,200)" />
<line x1="1925" y1="539" x2="1925" y2="41" stroke-width="0.5" stroke="rgb(200,200,200)" />
<line x1="1803" y1="548" x2="1803" y2="539" stroke-width="0.5" stroke="rgb(200,200,200)" />
<line x1="1807" y1="548" x2="1807" y2="543" stroke-width="0.5" stroke="rgb(200,200,200)" />
<line x1="1909" y1="543" x2="1807" y2="543" stroke-width="0.5" stroke="rgb(200,200,200)" />
<line x1="1925" y1="539" x2="1803" y2="539" stroke-width="0.5" stroke="rgb(200,200,200)" />
<line x1="572" y1="77" x2="572" y2="82" stroke-width="0.5" stroke="rgb(200,200,200)" />
<line x1="649" y1="77" x2="649" y2="82" stroke-width="0.5" stroke="rgb(200,200,200)" />
<line x1="1834" y1="621" x2="1836" y2="624" stroke-width="0.5" stroke="rgb(200,200,200)" />
<line x1="1836" y1="624" x2="1844" y2="621" stroke-width="0.5" stroke="rgb(200,200,200)" />
<line x1="1808" y1="627" x2="1827" y2="622" stroke-width="0.5" stroke="rgb(200,200,200)" />
<line x1="1827" y1="622" x2="1827" y2="616" stroke-width="0.5" stroke="rgb(200,200,200)" />
<line x1="1827" y1="616" x2="1834" y2="626" stroke-width="0.5" stroke="rgb(200,200,200)" />
<line x1="1834" y1="626" x2="1834" y2="621" stroke-width="0.5" stroke="rgb(200,200,200)" />
<line x1="1844" y1="621" x2="1857" y2="616" stroke-width="0.5" stroke="rgb(200,200,200)" />
<line x1="1808" y1="627" x2="1810" y2="627" stroke-width="0.5" stroke="rgb(200,200,200)" />
<line x1="1811" y1="627" x2="1855" y2="627" stroke-width="0.5" stroke="rgb(200,200,200)" />
<line x1="1856" y1="627" x2="1858" y2="627" stroke-width="0.5" stroke="rgb(200,200,200)" />
<line x1="1808" y1="638" x2="1810" y2="638" stroke-width="0.5" stroke="rgb(200,200,200)" />
<line x1="1811" y1="638" x2="1855" y2="638" stroke-width="0.5" stroke="rgb(200,200,200)" />
<line x1="1856" y1="638" x2="1858" y2="638" stroke-width="0.5" stroke="rgb(200,200,200)" />
<line x1="1808" y1="649" x2="1810" y2="649" stroke-width="0.5" stroke="rgb(200,200,200)" />
<line x1="1811" y1="649" x2="1855" y2="649" stroke-width="0.5" stroke="rgb(200,200,200)" />
<line x1="1856" y1="649" x2="1858" y2="649" stroke-width="0.5" stroke="rgb(200,200,200)" />
<line x1="1808" y1="660" x2="1810" y2="660" stroke-width="0.5" stroke="rgb(200,200,200)" />
<line x1="1811" y1="660" x2="1855" y2="660" stroke-width="0.5" stroke="rgb(200,200,200)" />
<line x1="1856" y1="660" x2="1858" y2="660" stroke-width="0.5" stroke="rgb(200,200,200)" />
<line x1="1808" y1="671" x2="1810" y2="671" stroke-width="0.5" stroke="rgb(200,200,200)" />
<line x1="1811" y1="671" x2="1855" y2="671" stroke-width="0.5" stroke="rgb(200,200,200)" />
<line x1="1856" y1="671" x2="1858" y2="671" stroke-width="0.5" stroke="rgb(200,200,200)" />
<line x1="1808" y1="682" x2="1810" y2="682" stroke-width="0.5" stroke="rgb(200,200,200)" />
<line x1="1811" y1="682" x2="1855" y2="682" stroke-width="0.5" stroke="rgb(200,200,200)" />
<line x1="1856" y1="682" x2="1858" y2="682" stroke-width="0.5" stroke="rgb(200,200,200)" />
<line x1="1808" y1="693" x2="1810" y2="693" stroke-width="0.5" stroke="rgb(200,200,200)" />
<line x1="1811" y1="693" x2="1855" y2="693" stroke-width="0.5" stroke="rgb(200,200,200)" />
<line x1="1856" y1="693" x2="1858" y2="693" stroke-width="0.5" stroke="rgb(200,200,200)" />
<line x1="1908" y1="693" x2="1906" y2="693" stroke-width="0.5" stroke="rgb(200,200,200)" />
<line x1="1905" y1="693" x2="1861" y2="693" stroke-width="0.5" stroke="rgb(200,200,200)" />
<line x1="1859" y1="693" x2="1858" y2="693" stroke-width="0.5" stroke="rgb(200,200,200)" />
<line x1="1908" y1="682" x2="1906" y2="682" stroke-width="0.5" stroke="rgb(200,200,200)" />
<line x1="1905" y1="682" x2="1861" y2="682" stroke-width="0.5" stroke="rgb(200,200,200)" />
<line x1="1859" y1="682" x2="1858" y2="682" stroke-width="0.5" stroke="rgb(200,200,200)" />
<line x1="1908" y1="671" x2="1906" y2="671" stroke-width="0.5" stroke="rgb(200,200,200)" />
<line x1="1905" y1="671" x2="1861" y2="671" stroke-width="0.5" stroke="rgb(200,200,200)" />
<line x1="1859" y1="671" x2="1858" y2="671" stroke-width="0.5" stroke="rgb(200,200,200)" />
<line x1="1908" y1="660" x2="1906" y2="660" stroke-width="0.5" stroke="rgb(200,200,200)" />
<line x1="1905" y1="660" x2="1861" y2="660" stroke-width="0.5" stroke="rgb(200,200,200)" />
<line x1="1859" y1="660" x2="1858" y2="660" stroke-width="0.5" stroke="rgb(200,200,200)" />
<line x1="1908" y1="649" x2="1906" y2="649" stroke-width="0.5" stroke="rgb(200,200,200)" />
<line x1="1905" y1="649" x2="1861" y2="649" stroke-width="0.5" stroke="rgb(200,200,200)" />
<line x1="1859" y1="649" x2="1858" y2="649" stroke-width="0.5" stroke="rgb(200,200,200)" />
<line x1="1908" y1="638" x2="1906" y2="638" stroke-width="0.5" stroke="rgb(200,200,200)" />
<line x1="1905" y1="638" x2="1861" y2="638" stroke-width="0.5" stroke="rgb(200,200,200)" />
<line x1="1859" y1="638" x2="1858" y2="638" stroke-width="0.5" stroke="rgb(200,200,200)" />
<line x1="1908" y1="627" x2="1906" y2="627" stroke-width="0.5" stroke="rgb(200,200,200)" />
<line x1="1905" y1="627" x2="1861" y2="627" stroke-width="0.5" stroke="rgb(200,200,200)" />
<line x1="1859" y1="627" x2="1858" y2="627" stroke-width="0.5" stroke="rgb(200,200,200)" />
<line x1="1908" y1="616" x2="1906" y2="616" stroke-width="0.5" stroke="rgb(200,200,200)" />
<line x1="1905" y1="616" x2="1861" y2="616" stroke-width="0.5" stroke="rgb(200,200,200)" />
<line x1="1859" y1="616" x2="1858" y2="616" stroke-width="0.5" stroke="rgb(200,200,200)" />
<line x1="1908" y1="605" x2="1906" y2="605" stroke-width="0.5" stroke="rgb(200,200,200)" />
<line x1="1905" y1="605" x2="1861" y2="605" stroke-width="0.5" stroke="rgb(200,200,200)" />
<line x1="1859" y1="605" x2="1858" y2="605" stroke-width="0.5" stroke="rgb(200,200,200)" />
<line x1="275" y1="209" x2="257" y2="214" stroke-width="0.5" stroke="rgb(200,200,200)" />
<line x1="257" y1="214" x2="257" y2="221" stroke-width="0.5" stroke="rgb(200,200,200)" />
<line x1="257" y1="221" x2="251" y2="210" stroke-width="0.5" stroke="rgb(200,200,200)" />
<line x1="251" y1="210" x2="251" y2="216" stroke-width="0.5" stroke="rgb(200,200,200)" />
<line x1="251" y1="216" x2="236" y2="221" stroke-width="0.5" stroke="rgb(200,200,200)" />
<line x1="277" y1="209" x2="276" y2="209" stroke-width="0.5" stroke="rgb(200,200,200)" />
<line x1="272" y1="209" x2="239" y2="209" stroke-width="0.5" stroke="rgb(200,200,200)" />
<line x1="238" y1="209" x2="236" y2="209" stroke-width="0.5" stroke="rgb(200,200,200)" />
<line x1="277" y1="197" x2="276" y2="197" stroke-width="0.5" stroke="rgb(200,200,200)" />
<line x1="272" y1="197" x2="239" y2="197" stroke-width="0.5" stroke="rgb(200,200,200)" />
<line x1="238" y1="197" x2="236" y2="197" stroke-width="0.5" stroke="rgb(200,200,200)" />
<line x1="277" y1="185" x2="276" y2="185" stroke-width="0.5" stroke="rgb(200,200,200)" />
<line x1="272" y1="185" x2="239" y2="185" stroke-width="0.5" stroke="rgb(200,200,200)" />
<line x1="238" y1="185" x2="236" y2="185" stroke-width="0.5" stroke="rgb(200,200,200)" />
<line x1="277" y1="173" x2="276" y2="173" stroke-width="0.5" stroke="rgb(200,200,200)" />
<line x1="272" y1="173" x2="239" y2="173" stroke-width="0.5" stroke="rgb(200,200,200)" />
<line x1="238" y1="173" x2="236" y2="173" stroke-width="0.5" stroke="rgb(200,200,200)" />
<line x1="277" y1="161" x2="276" y2="161" stroke-width="0.5" stroke="rgb(200,200,200)" />
<line x1="272" y1="161" x2="239" y2="161" stroke-width="0.5" stroke="rgb(200,200,200)" />
<line x1="238" y1="161" x2="236" y2="161" stroke-width="0.5" stroke="rgb(200,200,200)" />
<line x1="277" y1="149" x2="276" y2="149" stroke-width="0.5" stroke="rgb(200,200,200)" />
<line x1="272" y1="149" x2="239" y2="149" stroke-width="0.5" stroke="rgb(200,200,200)" />
<line x1="238" y1="149" x2="236" y2="149" stroke-width="0.5" stroke="rgb(200,200,200)" />
<line x1="277" y1="137" x2="276" y2="137" stroke-width="0.5" stroke="rgb(200,200,200)" />
<line x1="272" y1="137" x2="239" y2="137" stroke-width="0.5" stroke="rgb(200,200,200)" />
<line x1="238" y1="137" x2="236" y2="137" stroke-width="0.5" stroke="rgb(200,200,200)" />
<line x1="272" y1="137" x2="274" y2="137" stroke-width="0.5" stroke="rgb(200,200,200)" />
<line x1="278" y1="137" x2="316" y2="137" stroke-width="0.5" stroke="rgb(200,200,200)" />
<line x1="236" y1="137" x2="237" y2="137" stroke-width="0.5" stroke="rgb(200,200,200)" />
<line x1="272" y1="149" x2="274" y2="149" stroke-width="0.5" stroke="rgb(200,200,200)" />
<line x1="278" y1="149" x2="316" y2="149" stroke-width="0.5" stroke="rgb(200,200,200)" />
<line x1="236" y1="149" x2="237" y2="149" stroke-width="0.5" stroke="rgb(200,200,200)" />
<line x1="272" y1="161" x2="274" y2="161" stroke-width="0.5" stroke="rgb(200,200,200)" />
<line x1="278" y1="161" x2="316" y2="161" stroke-width="0.5" stroke="rgb(200,200,200)" />
<line x1="236" y1="161" x2="237" y2="161" stroke-width="0.5" stroke="rgb(200,200,200)" />
<line x1="272" y1="173" x2="274" y2="173" stroke-width="0.5" stroke="rgb(200,200,200)" />
<line x1="278" y1="173" x2="316" y2="173" stroke-width="0.5" stroke="rgb(200,200,200)" />
<line x1="236" y1="173" x2="237" y2="173" stroke-width="0.5" stroke="rgb(200,200,200)" />
<line x1="272" y1="185" x2="274" y2="185" stroke-width="0.5" stroke="rgb(200,200,200)" />
<line x1="278" y1="185" x2="316" y2="185" stroke-width="0.5" stroke="rgb(200,200,200)" />
<line x1="236" y1="185" x2="237" y2="185" stroke-width="0.5" stroke="rgb(200,200,200)" />
<line x1="272" y1="197" x2="274" y2="197" stroke-width="0.5" stroke="rgb(200,200,200)" />
<line x1="278" y1="197" x2="316" y2="197" stroke-width="0.5" stroke="rgb(200,200,200)" />
<line x1="236" y1="197" x2="237" y2="197" stroke-width="0.5" stroke="rgb(200,200,200)" />
<line x1="272" y1="209" x2="274" y2="209" stroke-width="0.5" stroke="rgb(200,200,200)" />
<line x1="278" y1="209" x2="316" y2="209" stroke-width="0.5" stroke="rgb(200,200,200)" />
<line x1="236" y1="209" x2="237" y2="209" stroke-width="0.5" stroke="rgb(200,200,200)" />
<line x1="278" y1="221" x2="316" y2="221" stroke-width="0.5" stroke="rgb(200,200,200)" />
<line x1="236" y1="221" x2="237" y2="221" stroke-width="0.5" stroke="rgb(200,200,200)" />
<line x1="278" y1="233" x2="316" y2="233" stroke-width="0.5" stroke="rgb(200,200,200)" />
<line x1="317" y1="233" x2="319" y2="233" stroke-width="0.5" stroke="rgb(200,200,200)" />
<line x1="1810" y1="626" x2="1810" y2="693" stroke-width="0.5" stroke="rgb(200,200,200)" />
<line x1="1811" y1="626" x2="1811" y2="693" stroke-width="0.5" stroke="rgb(200,200,200)" />
<line x1="1855" y1="617" x2="1855" y2="693" stroke-width="0.5" stroke="rgb(200,200,200)" />
<line x1="1856" y1="616" x2="1856" y2="693" stroke-width="0.5" stroke="rgb(200,200,200)" />
<line x1="1906" y1="693" x2="1906" y2="605" stroke-width="0.5" stroke="rgb(200,200,200)" />
<line x1="1905" y1="693" x2="1905" y2="605" stroke-width="0.5" stroke="rgb(200,200,200)" />
<line x1="1861" y1="693" x2="1861" y2="605" stroke-width="0.5" stroke="rgb(200,200,200)" />
<line x1="1859" y1="693" x2="1859" y2="605" stroke-width="0.5" stroke="rgb(200,200,200)" />
<line x1="273" y1="209" x2="273" y2="137" stroke-width="0.5" stroke="rgb(200,200,200)" />
<line x1="272" y1="210" x2="272" y2="137" stroke-width="0.5" stroke="rgb(200,200,200)" />
<line x1="239" y1="220" x2="239" y2="137" stroke-width="0.5" stroke="rgb(200,200,200)" />
<line x1="238" y1="220" x2="238" y2="137" stroke-width="0.5" stroke="rgb(200,200,200)" />
<line x1="276" y1="137" x2="276" y2="233" stroke-width="0.5" stroke="rgb(200,200,200)" />
<line x1="278" y1="137" x2="278" y2="233" stroke-width="0.5" stroke="rgb(200,200,200)" />
<line x1="316" y1="137" x2="316" y2="233" stroke-width="0.5" stroke="rgb(200,200,200)" />
<line x1="317" y1="137" x2="317" y2="233" stroke-width="0.5" stroke="rgb(200,200,200)" />
</svg>
